<svg xmlns="http://www.w3.org/2000/svg" viewBox="0 0 44.25 20.61"><defs><style>.cls-1{fill:#fff;}</style></defs><g id="Layer_2" data-name="Layer 2"><g id="Layer_1-2" data-name="Layer 1"><path class="cls-1" d="M4.75,7.17a6.26,6.26,0,0,0,.09-1,4.8,4.8,0,0,0-.07-1,1.35,1.35,0,0,0-.18-.54.48.48,0,0,0-.27-.2A1.39,1.39,0,0,1,4,4.42a.84.84,0,0,1-.36-.22H7A2.21,2.21,0,0,0,6.5,5.36a4.37,4.37,0,0,0,0,1.53A2.17,2.17,0,0,0,7,8H3.61A3.42,3.42,0,0,1,1,7,4.38,4.38,0,0,1,0,4.07a4.12,4.12,0,0,1,.91-3A3.36,3.36,0,0,1,3.58,0c1.6,0,2.57.25,2.93.76s0,1.18-1.16,2a3.59,3.59,0,0,0-.28-1.42A2,2,0,0,0,4.43.52,1.34,1.34,0,0,0,3.56.28a1.12,1.12,0,0,0-.93.56A3.41,3.41,0,0,0,2.09,2.2,8.21,8.21,0,0,0,2,4,8.91,8.91,0,0,0,2.2,5.73a4.07,4.07,0,0,0,.61,1.38,1.25,1.25,0,0,0,.91.61.91.91,0,0,0,.53-.13A2.19,2.19,0,0,0,4.75,7.17Z"/><path class="cls-1" d="M7.77,4.33a1.52,1.52,0,0,0-.28-1.08A2.84,2.84,0,0,0,8.43,3a2.66,2.66,0,0,1,1-.31V5a4.3,4.3,0,0,1,.38-.94,3.86,3.86,0,0,1,.56-.79,2,2,0,0,1,.76-.51,1.7,1.7,0,0,1,.9-.09,1.1,1.1,0,0,1,.94.87,1.18,1.18,0,0,1-.26,1.05.92.92,0,0,1-1,.34.85.85,0,0,1-.37-.18.75.75,0,0,1-.21-.24L11,4.29c-.07-.06-.13-.1-.19-.09a.77.77,0,0,0-.31.12A2.39,2.39,0,0,0,9.41,5.63V6a1.36,1.36,0,0,1,0,.18c0,.23,0,.4,0,.53s0,.27.06.44a1.9,1.9,0,0,0,.18.49A1.79,1.79,0,0,0,10,8H7.19a2.51,2.51,0,0,0,.34-.42,1.58,1.58,0,0,0,.17-.49,2.15,2.15,0,0,0,.06-.45c0-.12,0-.3,0-.53V4.33Z"/><path class="cls-1" d="M13.19,5.82a2.13,2.13,0,0,1,.26-1,1.43,1.43,0,0,1,.61-.59,2.19,2.19,0,0,1,.81-.2,2.28,2.28,0,0,1,.83.09,2.64,2.64,0,0,1,.72.34,1.33,1.33,0,0,1,.46.52,2.36,2.36,0,0,0-.34-1.19A2.13,2.13,0,0,0,15.71,3a.89.89,0,0,0-.89,0,.33.33,0,0,0-.1.49,1,1,0,0,0,.53.43A9.07,9.07,0,0,1,14.13,4a2.19,2.19,0,0,1-.64,0c-.13,0-.19-.11-.19-.21,0-.26.31-.52.83-.77a4.09,4.09,0,0,1,2.27-.38,2.14,2.14,0,0,1,2,1.57,3.61,3.61,0,0,1,.15,1.08V6.43a2.93,2.93,0,0,0,.12.9,1.7,1.7,0,0,0,.45.71H16.26a1.18,1.18,0,0,0,.34-.33,1.73,1.73,0,0,0,.19-.45,1.86,1.86,0,0,1-.49.57,1.19,1.19,0,0,1-.73.21,2.48,2.48,0,0,1-1.73-.6A2.08,2.08,0,0,1,13.19,5.82Zm3.7.16V5.62a1.38,1.38,0,0,0-.18-.46,1.32,1.32,0,0,0-.31-.35A1.71,1.71,0,0,0,16,4.6a.67.67,0,0,0-.42,0,.87.87,0,0,0-.37.19.9.9,0,0,0-.27.44,2.54,2.54,0,0,0-.12.74,2.53,2.53,0,0,0,.37,1.55.68.68,0,0,0,.86.26,1.18,1.18,0,0,0,.6-.59A2.51,2.51,0,0,0,16.89,6Z"/><path class="cls-1" d="M24.79,5.13a3,3,0,0,1-1,2.45A1.76,1.76,0,0,1,22.23,8a1.43,1.43,0,0,1-1.09-1s0-.1-.05-.14V8.8c0,.23,0,.41,0,.53a2.15,2.15,0,0,0,.06.45,1.55,1.55,0,0,0,.51.9H18.89a1.79,1.79,0,0,0,.33-.42,1.6,1.6,0,0,0,.18-.49q0-.27.06-.45v-5a1.58,1.58,0,0,0-.27-1.08,2.88,2.88,0,0,0,.93-.3,2.69,2.69,0,0,1,1-.31v.73a1.5,1.5,0,0,1,1.3-.73,2.32,2.32,0,0,1,1.76.65A2.5,2.5,0,0,1,24.79,5.13Zm-3.7-.44V6.55a.71.71,0,0,0,.59.64,1,1,0,0,0,1-.4,2.28,2.28,0,0,0,.49-1.51,2.55,2.55,0,0,0-.63-2,.66.66,0,0,0-.9-.09A1.76,1.76,0,0,0,21.09,4.69Z"/><path class="cls-1" d="M25.48,1.85A1.61,1.61,0,0,0,25.21.76a2.46,2.46,0,0,0,.93-.38,2.47,2.47,0,0,1,1-.38V4.1a1.89,1.89,0,0,1,.37-.75,1.57,1.57,0,0,1,.59-.48,2.48,2.48,0,0,1,.7-.22,1.68,1.68,0,0,1,.74.06,2.06,2.06,0,0,1,.65.31,1.39,1.39,0,0,1,.46.59,1.93,1.93,0,0,1,.18.85v1.7c0,.18,0,.32,0,.42a3.29,3.29,0,0,0,0,.38,1.63,1.63,0,0,0,.09.38,2.14,2.14,0,0,0,.17.34,1.93,1.93,0,0,0,.28.36H28.61a2,2,0,0,0,.33-.42,1.58,1.58,0,0,0,.17-.49q0-.27.06-.45c0-.12,0-.3,0-.53V4.78a1.25,1.25,0,0,0-.19-.7,1,1,0,0,0-.48-.39,1.44,1.44,0,0,0-.58-.09.81.81,0,0,0-.52.24,1,1,0,0,0-.29.57V6a1.36,1.36,0,0,1,0,.18c0,.23,0,.4,0,.53a3,3,0,0,0,.07.44,1.58,1.58,0,0,0,.17.49A1.79,1.79,0,0,0,27.7,8H24.91a2,2,0,0,0,.33-.42,1.6,1.6,0,0,0,.18-.49q0-.27.06-.45V1.85Z"/><path class="cls-1" d="M32,6V4.33a1.52,1.52,0,0,0-.28-1.08,2.84,2.84,0,0,0,.94-.3,2.71,2.71,0,0,1,1-.31V6a1.36,1.36,0,0,1,0,.18c0,.23,0,.4,0,.53a3,3,0,0,0,.07.44,1.58,1.58,0,0,0,.17.49,1.79,1.79,0,0,0,.34.42H31.46a3,3,0,0,0,.33-.42A1.9,1.9,0,0,0,32,7.13,2.92,2.92,0,0,0,32,6.68c0-.12,0-.3,0-.53ZM32.86.7a.72.72,0,0,1,.61.13.71.71,0,0,1,.25.57,1.08,1.08,0,0,1-.24.67,1.3,1.3,0,0,1-.7.42q-.47.12-.63,0C32,2.37,32,2.16,32,1.85a1.32,1.32,0,0,1,.27-.77A1,1,0,0,1,32.86.7Z"/><path class="cls-1" d="M36.69,6.5A1.3,1.3,0,0,1,37,5.93a1.67,1.67,0,0,1,.58-.38,2.6,2.6,0,0,1,.66-.14.93.93,0,0,1,.57.13.86.86,0,0,1,.4.46,1,1,0,0,1,0,.65,1.81,1.81,0,0,1-.31.66,1.62,1.62,0,0,1-.72.52,3.15,3.15,0,0,1-3.11-.49,2.73,2.73,0,0,1-.78-2,2.62,2.62,0,0,1,.67-2,2.6,2.6,0,0,1,2-.72q1.44,0,1.68.48c.16.32-.14.76-.91,1.31a2.28,2.28,0,0,0,0-.69,1.48,1.48,0,0,0-.25-.64A.6.6,0,0,0,37,2.83a.54.54,0,0,0-.43.27,2.34,2.34,0,0,0-.31.71,8.73,8.73,0,0,0-.16,1,6.14,6.14,0,0,0,0,1.05,5.31,5.31,0,0,0,.16,1,1.83,1.83,0,0,0,.34.73.73.73,0,0,0,.53.3.62.62,0,0,0,.52-.2.86.86,0,0,0,.24-.53,1,1,0,0,0-.12-.57.65.65,0,0,0-.47-.29A.81.81,0,0,0,36.69,6.5Z"/><path class="cls-1" d="M41.78,2.64c1.19,0,1.88.32,2.07.94a.7.7,0,0,1-.22.73.74.74,0,0,1-.7.14.58.58,0,0,1-.44-.5.72.72,0,0,1,0-.29,1,1,0,0,1,.12-.21.16.16,0,0,0,0-.16.29.29,0,0,0-.15-.19A1.61,1.61,0,0,0,42,2.84a1,1,0,0,0-.47,0,.59.59,0,0,0-.32.17.45.45,0,0,0-.12.32.58.58,0,0,0,.14.42,2.33,2.33,0,0,0,.45.39l.53.35c.26.17.5.32.7.47a8.11,8.11,0,0,1,.64.5,2.35,2.35,0,0,1,.53.58,1.11,1.11,0,0,1,.19.6c0,.36-.25.7-.74,1A3.09,3.09,0,0,1,41.84,8a4.68,4.68,0,0,1-.66,0,4.46,4.46,0,0,1-.67-.14,1.53,1.53,0,0,1-.61-.31A1,1,0,0,1,39.58,7a.67.67,0,0,1,.21-.73.74.74,0,0,1,.7-.14.55.55,0,0,1,.44.49.51.51,0,0,1,0,.3,1,1,0,0,1-.12.21.19.19,0,0,0,0,.16c0,.06,0,.12.15.19a1.68,1.68,0,0,0,.78.26,1.38,1.38,0,0,0,.82-.14A.59.59,0,0,0,42.83,7a.77.77,0,0,0-.35-.5A7.13,7.13,0,0,0,41.69,6c-.31-.18-.61-.37-.92-.58a3.38,3.38,0,0,1-.8-.7,1.39,1.39,0,0,1-.34-.84A1,1,0,0,1,40.28,3,3.13,3.13,0,0,1,41.78,2.64Z"/><path class="cls-1" d="M4.75,17.32a6.26,6.26,0,0,0,.09-.95,4.8,4.8,0,0,0-.07-1,1.3,1.3,0,0,0-.18-.54.48.48,0,0,0-.27-.2A1.39,1.39,0,0,1,4,14.57a.84.84,0,0,1-.36-.22H7a2.21,2.21,0,0,0-.54,1.16A4.31,4.31,0,0,0,6.5,17,2.21,2.21,0,0,0,7,18.19H3.61A3.43,3.43,0,0,1,1,17.1a4.33,4.33,0,0,1-1-2.88,4.16,4.16,0,0,1,.91-3,3.39,3.39,0,0,1,2.67-1.08c1.6,0,2.57.25,2.93.76s0,1.18-1.16,2a3.59,3.59,0,0,0-.28-1.42,2,2,0,0,0-.64-.86,1.41,1.41,0,0,0-.87-.25,1.15,1.15,0,0,0-.93.57,3.41,3.41,0,0,0-.54,1.36A8.21,8.21,0,0,0,2,14.11a8.71,8.71,0,0,0,.23,1.76,4.12,4.12,0,0,0,.61,1.39,1.28,1.28,0,0,0,.91.61,1,1,0,0,0,.53-.13A2.19,2.19,0,0,0,4.75,17.32Z"/><path class="cls-1" d="M7.33,16a2.09,2.09,0,0,1,.27-1,1.39,1.39,0,0,1,.6-.58,2.19,2.19,0,0,1,.81-.2,2.28,2.28,0,0,1,.83.09,2.51,2.51,0,0,1,.72.34,1.37,1.37,0,0,1,.46.51A2.26,2.26,0,0,0,10.68,14a2.13,2.13,0,0,0-.83-.83.89.89,0,0,0-.89,0,.33.33,0,0,0-.1.49,1,1,0,0,0,.53.43,8.78,8.78,0,0,1-1.12.16,2,2,0,0,1-.64,0q-.19-.06-.18-.21c0-.26.3-.52.82-.77a4.09,4.09,0,0,1,2.27-.38,2.14,2.14,0,0,1,2,1.57,3.61,3.61,0,0,1,.15,1.08v1.16a3,3,0,0,0,.12.9,1.73,1.73,0,0,0,.46.71H10.4a1.18,1.18,0,0,0,.34-.33,1.45,1.45,0,0,0,.19-.45,1.73,1.73,0,0,1-.49.57,1.19,1.19,0,0,1-.73.21A2.44,2.44,0,0,1,8,17.59,2.08,2.08,0,0,1,7.33,16Zm3.7.16v-.36a1.3,1.3,0,0,0-.18-.46,1.32,1.32,0,0,0-.31-.35,1.71,1.71,0,0,0-.4-.21.67.67,0,0,0-.42,0,.77.77,0,0,0-.37.19.92.92,0,0,0-.27.44A2.54,2.54,0,0,0,9,16.1a2.48,2.48,0,0,0,.38,1.55.68.68,0,0,0,.85.26,1.26,1.26,0,0,0,.6-.59A2.54,2.54,0,0,0,11,16.13Z"/><path class="cls-1" d="M13.83,14.48a1.56,1.56,0,0,0-.27-1.08,2.67,2.67,0,0,0,.93-.31,2.83,2.83,0,0,1,1-.3v2.34a4,4,0,0,1,.38-.93,3.51,3.51,0,0,1,.56-.79,1.93,1.93,0,0,1,.75-.51,1.72,1.72,0,0,1,.9-.09,1.09,1.09,0,0,1,.94.87,1.15,1.15,0,0,1-.26,1.05.94.94,0,0,1-1,.34.87.87,0,0,1-.36-.18.8.8,0,0,1-.22-.24.65.65,0,0,0-.16-.21.21.21,0,0,0-.19-.09.83.83,0,0,0-.31.12,2.42,2.42,0,0,0-1,1.31v.35s0,.1,0,.18c0,.23,0,.4,0,.52a2,2,0,0,0,.06.45,1.44,1.44,0,0,0,.17.48,1.65,1.65,0,0,0,.34.43H13.26a1.83,1.83,0,0,0,.33-.43,1.26,1.26,0,0,0,.18-.48q0-.27.06-.45V14.48Z"/><path class="cls-1" d="M19.25,16a2.21,2.21,0,0,1,.27-1,1.36,1.36,0,0,1,.61-.58,2.1,2.1,0,0,1,.8-.2,2.36,2.36,0,0,1,.84.09,2.45,2.45,0,0,1,.71.34,1.29,1.29,0,0,1,.46.51A2.26,2.26,0,0,0,22.6,14a2.11,2.11,0,0,0-.82-.83.89.89,0,0,0-.89,0,.32.32,0,0,0-.1.49,1,1,0,0,0,.52.43,8.43,8.43,0,0,1-1.11.16,2,2,0,0,1-.65,0q-.19-.06-.18-.21c0-.26.31-.52.83-.77a4.06,4.06,0,0,1,2.26-.38,2.16,2.16,0,0,1,2,1.57,3.61,3.61,0,0,1,.15,1.08v1.16a3,3,0,0,0,.11.9,1.83,1.83,0,0,0,.46.71H22.32a1.07,1.07,0,0,0,.34-.33,1.24,1.24,0,0,0,.19-.45,1.73,1.73,0,0,1-.49.57,1.19,1.19,0,0,1-.73.21,2.45,2.45,0,0,1-1.72-.6A2.08,2.08,0,0,1,19.25,16Zm3.7.16v-.36a1.5,1.5,0,0,0-.17-.46,1.35,1.35,0,0,0-.32-.35,1.39,1.39,0,0,0-.4-.21.67.67,0,0,0-.42,0,.82.82,0,0,0-.37.19.92.92,0,0,0-.27.44,2.26,2.26,0,0,0-.11.74,2.48,2.48,0,0,0,.37,1.55.68.68,0,0,0,.85.26,1.26,1.26,0,0,0,.6-.59A2.54,2.54,0,0,0,23,16.13Z"/><path class="cls-1" d="M29.86,13.28A2,2,0,0,1,30.7,15a1.83,1.83,0,0,1-.65,1.49A2.83,2.83,0,0,1,28.2,17a3.75,3.75,0,0,1-.48,0,4.08,4.08,0,0,0-.6.32,1.5,1.5,0,0,0-.33.26.35.35,0,0,0-.1.19c0,.05,0,.09.1.11a1.06,1.06,0,0,0,.27,0,3.76,3.76,0,0,0,.43-.08A4.72,4.72,0,0,0,28,17.6l.44-.17a4.55,4.55,0,0,1,.46-.14,3.51,3.51,0,0,1,.49-.11h.44a1.17,1.17,0,0,1,.43.11,1.12,1.12,0,0,1,.34.29,1.42,1.42,0,0,1,.27.47,1.65,1.65,0,0,1,.06.81,1.45,1.45,0,0,1-.37.67,3.18,3.18,0,0,1-.65.51,4.09,4.09,0,0,1-.77.34,3.22,3.22,0,0,1-3-.31,2.34,2.34,0,0,1-1-1.27c-.11-.44,0-.73.22-.89s1.06,0,2,.73l.26.22a4.25,4.25,0,0,0,1.08.65,1.2,1.2,0,0,0,.86.09.37.37,0,0,0,.17-.45.76.76,0,0,0-.39-.5,2.28,2.28,0,0,0-.35-.17c-.14-.05-.3-.09-.49-.14l-.47-.1-.51-.1c-.33-.05-.57-.09-.72-.13a2.79,2.79,0,0,1-.47-.15c-.17-.07-.24-.15-.21-.23a1,1,0,0,1,.3-.32,4.39,4.39,0,0,1,.83-.46,2.41,2.41,0,0,1-.89-.45,2,2,0,0,1-.58-.69,1.73,1.73,0,0,1-.21-.83,1.88,1.88,0,0,1,.68-1.56,2.86,2.86,0,0,1,1.89-.53,4,4,0,0,1,.87.1.92.92,0,0,1,.07-.69,1.22,1.22,0,0,1,.5-.48,1.4,1.4,0,0,1,.71-.15,1.11,1.11,0,0,1,.69.3l0,0a.67.67,0,0,1,.21.49.68.68,0,0,1-1.36,0,.63.63,0,0,1,.16-.44.71.71,0,0,1,.4-.23,1,1,0,0,0-.62.26.82.82,0,0,0-.21.66A1,1,0,0,0,29.86,13.28Zm-1.51,3.5a.71.71,0,0,0,.58-.42,2,2,0,0,0,.22-.94,5.12,5.12,0,0,0-.1-1.1,2.41,2.41,0,0,0-.4-.94A.94.94,0,0,0,28,13a.72.72,0,0,0-.57.42,1.89,1.89,0,0,0-.22.94,5.12,5.12,0,0,0,.1,1.1,2.44,2.44,0,0,0,.41.94A.91.91,0,0,0,28.35,16.78Z"/><path class="cls-1" d="M35.88,17v.34a2.75,2.75,0,0,1-1,.65,2.69,2.69,0,0,1-.89.2,3.1,3.1,0,0,1-2.1-.68,2.5,2.5,0,0,1-.83-1.92,2.69,2.69,0,0,1,.67-2,2.65,2.65,0,0,1,2-.76,2.4,2.4,0,0,1,1.51.41,1.22,1.22,0,0,1,.53,1,1.61,1.61,0,0,1-.21.71,2.15,2.15,0,0,1-.55.63,2.5,2.5,0,0,1-.93.41,3.5,3.5,0,0,1-1.26,0,2.1,2.1,0,0,0,.1.44,4.38,4.38,0,0,0,.23.5,1.87,1.87,0,0,0,.38.47,1.36,1.36,0,0,0,.5.3,1.24,1.24,0,0,0,.9-.06A2.79,2.79,0,0,0,35.88,17ZM32.8,15.57a2.08,2.08,0,0,0,1-.68,2.51,2.51,0,0,0,.48-1,.9.9,0,0,0-.05-.67.54.54,0,0,0-.47-.3.48.48,0,0,0-.32.17,2.3,2.3,0,0,0-.36.49,2.55,2.55,0,0,0-.25.83A3.73,3.73,0,0,0,32.8,15.57Z"/><path class="cls-1" d="M37.46,15.39V16H37v2.24h-.72V16h-.43v-.56Z"/><path class="cls-1" d="M39.77,15.39v2.8h-.64V16.3l-.25,1.89h-.45l-.27-1.84v1.84h-.63v-2.8h.94c0,.17.05.37.08.6l.11.71.16-1.31Z"/></g></g></svg>