<svg xmlns="http://www.w3.org/2000/svg" viewBox="0 0 20.96 24.29"><defs><style>.cls-1{fill:#fff;}</style></defs><g id="Layer_2" data-name="Layer 2"><g id="Layer_1-2" data-name="Layer 1"><path class="cls-1" d="M1.38,17.38A9.52,9.52,0,0,1,0,12.1,9.42,9.42,0,0,1,1.36,6.87,8.81,8.81,0,0,1,5.09,3.65,18.23,18.23,0,0,0,3.42,12.1a23.3,23.3,0,0,0,.45,4.6,13.12,13.12,0,0,0,1.39,3.92A8.66,8.66,0,0,1,1.38,17.38ZM7.56.94A6.24,6.24,0,0,1,11,0a5.69,5.69,0,0,1,5.57,3.46,13.32,13.32,0,0,0-2.7-.72,19.7,19.7,0,0,0-3-.23,15.89,15.89,0,0,0-3,.28,12.35,12.35,0,0,0-2.74.86A7.4,7.4,0,0,1,7.56.94Zm.1,22.38a7.54,7.54,0,0,1-2.4-2.7A13.87,13.87,0,0,0,11,21.7a14.88,14.88,0,0,0,6.14-1.11,6.32,6.32,0,0,1-2.34,2.71,6.8,6.8,0,0,1-3.74,1A5.88,5.88,0,0,1,7.66,23.32Zm10.42-7.39v-2H11.2V11.81H21v2.85a6.46,6.46,0,0,1-1,3.53,6.58,6.58,0,0,1-2.9,2.4A10.37,10.37,0,0,0,18.08,15.93ZM16.56,3.46a8.25,8.25,0,0,1,2.79,1.72,5,5,0,0,1,1.43,2.57H17.57A12,12,0,0,0,16.56,3.46Z"/></g></g></svg>